<mxfile host="app.diagrams.net" modified="2024-06-19T07:12:32.920Z" agent="Mozilla/5.0 (Windows NT 10.0; Win64; x64) AppleWebKit/537.36 (KHTML, like Gecko) Chrome/121.0.0.0 Safari/537.36" etag="ifPG-5f1RueZEB8TXUfv" version="24.5.5" type="github">
  <diagram id="C5RBs43oDa-KdzZeNtuy" name="Page-1">
    <mxGraphModel dx="2261" dy="746" grid="1" gridSize="10" guides="1" tooltips="1" connect="1" arrows="1" fold="1" page="1" pageScale="1" pageWidth="827" pageHeight="1169" math="0" shadow="0">
      <root>
        <mxCell id="WIyWlLk6GJQsqaUBKTNV-0" />
        <mxCell id="WIyWlLk6GJQsqaUBKTNV-1" parent="WIyWlLk6GJQsqaUBKTNV-0" />
        <mxCell id="DFltRbdISgKAobZ0qITD-0" value="获取要监控目录信息" style="whiteSpace=wrap;strokeWidth=2;" vertex="1" parent="WIyWlLk6GJQsqaUBKTNV-1">
          <mxGeometry x="64" y="20" width="161" height="34" as="geometry" />
        </mxCell>
        <mxCell id="DFltRbdISgKAobZ0qITD-1" value="遍历目录中的文件" style="whiteSpace=wrap;strokeWidth=2;" vertex="1" parent="WIyWlLk6GJQsqaUBKTNV-1">
          <mxGeometry x="72" y="104" width="145" height="34" as="geometry" />
        </mxCell>
        <mxCell id="DFltRbdISgKAobZ0qITD-2" value="判断文件状态" style="rhombus;strokeWidth=2;whiteSpace=wrap;" vertex="1" parent="WIyWlLk6GJQsqaUBKTNV-1">
          <mxGeometry x="71" y="188" width="146" height="146" as="geometry" />
        </mxCell>
        <mxCell id="DFltRbdISgKAobZ0qITD-3" value="构造并追加到数字签名总数据" style="whiteSpace=wrap;strokeWidth=2;" vertex="1" parent="WIyWlLk6GJQsqaUBKTNV-1">
          <mxGeometry x="345" y="403" width="225" height="34" as="geometry" />
        </mxCell>
        <mxCell id="DFltRbdISgKAobZ0qITD-4" value="抛出异常，记录日志及界面输出" style="whiteSpace=wrap;strokeWidth=2;" vertex="1" parent="WIyWlLk6GJQsqaUBKTNV-1">
          <mxGeometry x="55" y="403" width="240" height="34" as="geometry" />
        </mxCell>
        <mxCell id="DFltRbdISgKAobZ0qITD-5" value="结束" style="whiteSpace=wrap;strokeWidth=2;" vertex="1" parent="WIyWlLk6GJQsqaUBKTNV-1">
          <mxGeometry x="402" y="1104" width="49" height="34" as="geometry" />
        </mxCell>
        <mxCell id="DFltRbdISgKAobZ0qITD-6" value="提交基础数据到远程服务器,比较并保存数据" style="rhombus;strokeWidth=2;whiteSpace=wrap;" vertex="1" parent="WIyWlLk6GJQsqaUBKTNV-1">
          <mxGeometry x="277" y="487" width="361" height="361" as="geometry" />
        </mxCell>
        <mxCell id="DFltRbdISgKAobZ0qITD-7" value="比较昨天与今天的数据，保存结果" style="whiteSpace=wrap;strokeWidth=2;" vertex="1" parent="WIyWlLk6GJQsqaUBKTNV-1">
          <mxGeometry x="560" y="917" width="256" height="34" as="geometry" />
        </mxCell>
        <mxCell id="DFltRbdISgKAobZ0qITD-8" value="记录删除文件的路径" style="whiteSpace=wrap;strokeWidth=2;" vertex="1" parent="WIyWlLk6GJQsqaUBKTNV-1">
          <mxGeometry x="225" y="1020" width="161" height="34" as="geometry" />
        </mxCell>
        <mxCell id="DFltRbdISgKAobZ0qITD-9" value="记录新增文件的路径及md5值" style="whiteSpace=wrap;strokeWidth=2;" vertex="1" parent="WIyWlLk6GJQsqaUBKTNV-1">
          <mxGeometry x="436" y="1020" width="224" height="34" as="geometry" />
        </mxCell>
        <mxCell id="DFltRbdISgKAobZ0qITD-10" value="记录被修改文件的路径及修改前后的md5值" style="whiteSpace=wrap;strokeWidth=2;" vertex="1" parent="WIyWlLk6GJQsqaUBKTNV-1">
          <mxGeometry x="710" y="1020" width="320" height="34" as="geometry" />
        </mxCell>
        <mxCell id="DFltRbdISgKAobZ0qITD-11" value="" style="curved=1;startArrow=none;endArrow=block;exitX=0.5;exitY=1;entryX=0.5;entryY=0;rounded=0;" edge="1" parent="WIyWlLk6GJQsqaUBKTNV-1" source="DFltRbdISgKAobZ0qITD-0" target="DFltRbdISgKAobZ0qITD-1">
          <mxGeometry relative="1" as="geometry">
            <Array as="points" />
          </mxGeometry>
        </mxCell>
        <mxCell id="DFltRbdISgKAobZ0qITD-12" value="" style="curved=1;startArrow=none;endArrow=block;exitX=0.5;exitY=1;entryX=0.5;entryY=0;rounded=0;" edge="1" parent="WIyWlLk6GJQsqaUBKTNV-1" source="DFltRbdISgKAobZ0qITD-1" target="DFltRbdISgKAobZ0qITD-2">
          <mxGeometry relative="1" as="geometry">
            <Array as="points" />
          </mxGeometry>
        </mxCell>
        <mxCell id="DFltRbdISgKAobZ0qITD-13" value="文件可读" style="curved=1;startArrow=none;endArrow=block;exitX=1;exitY=0.67;entryX=0.5;entryY=0;rounded=0;" edge="1" parent="WIyWlLk6GJQsqaUBKTNV-1" source="DFltRbdISgKAobZ0qITD-2" target="DFltRbdISgKAobZ0qITD-3">
          <mxGeometry relative="1" as="geometry">
            <Array as="points">
              <mxPoint x="458" y="369" />
            </Array>
          </mxGeometry>
        </mxCell>
        <mxCell id="DFltRbdISgKAobZ0qITD-14" value="文件不可读" style="curved=1;startArrow=none;endArrow=block;exitX=0.65;exitY=1;entryX=0.5;entryY=0;rounded=0;" edge="1" parent="WIyWlLk6GJQsqaUBKTNV-1" source="DFltRbdISgKAobZ0qITD-2" target="DFltRbdISgKAobZ0qITD-4">
          <mxGeometry relative="1" as="geometry">
            <Array as="points">
              <mxPoint x="175" y="369" />
            </Array>
          </mxGeometry>
        </mxCell>
        <mxCell id="DFltRbdISgKAobZ0qITD-15" value="文件尺寸超过500M" style="curved=1;startArrow=none;endArrow=block;exitX=0;exitY=0.93;entryX=0.01;entryY=0.42;rounded=0;" edge="1" parent="WIyWlLk6GJQsqaUBKTNV-1" source="DFltRbdISgKAobZ0qITD-2" target="DFltRbdISgKAobZ0qITD-5">
          <mxGeometry relative="1" as="geometry">
            <Array as="points">
              <mxPoint x="20" y="369" />
              <mxPoint x="20" y="1079" />
            </Array>
          </mxGeometry>
        </mxCell>
        <mxCell id="DFltRbdISgKAobZ0qITD-16" value="" style="curved=1;startArrow=none;endArrow=block;exitX=0.5;exitY=1;entryX=0.5;entryY=0;rounded=0;" edge="1" parent="WIyWlLk6GJQsqaUBKTNV-1" source="DFltRbdISgKAobZ0qITD-3" target="DFltRbdISgKAobZ0qITD-6">
          <mxGeometry relative="1" as="geometry">
            <Array as="points" />
          </mxGeometry>
        </mxCell>
        <mxCell id="DFltRbdISgKAobZ0qITD-17" value="昨天数据存在" style="curved=1;startArrow=none;endArrow=block;exitX=1;exitY=0.97;entryX=0.5;entryY=0;rounded=0;" edge="1" parent="WIyWlLk6GJQsqaUBKTNV-1" source="DFltRbdISgKAobZ0qITD-6" target="DFltRbdISgKAobZ0qITD-7">
          <mxGeometry relative="1" as="geometry">
            <Array as="points">
              <mxPoint x="688" y="882" />
            </Array>
          </mxGeometry>
        </mxCell>
        <mxCell id="DFltRbdISgKAobZ0qITD-18" value="昨天数据不存在" style="curved=1;startArrow=none;endArrow=block;exitX=0.09;exitY=1;entryX=0.45;entryY=0;rounded=0;" edge="1" parent="WIyWlLk6GJQsqaUBKTNV-1" source="DFltRbdISgKAobZ0qITD-6" target="DFltRbdISgKAobZ0qITD-8">
          <mxGeometry relative="1" as="geometry">
            <Array as="points">
              <mxPoint x="282" y="882" />
              <mxPoint x="282" y="985" />
            </Array>
          </mxGeometry>
        </mxCell>
        <mxCell id="DFltRbdISgKAobZ0qITD-19" value="remove" style="curved=1;startArrow=none;endArrow=block;exitX=0.13;exitY=1;entryX=0.69;entryY=0;rounded=0;" edge="1" parent="WIyWlLk6GJQsqaUBKTNV-1" source="DFltRbdISgKAobZ0qITD-7" target="DFltRbdISgKAobZ0qITD-8">
          <mxGeometry relative="1" as="geometry">
            <Array as="points">
              <mxPoint x="397" y="985" />
            </Array>
          </mxGeometry>
        </mxCell>
        <mxCell id="DFltRbdISgKAobZ0qITD-20" value="add" style="curved=1;startArrow=none;endArrow=block;exitX=0.32;exitY=1;entryX=0.5;entryY=0;rounded=0;" edge="1" parent="WIyWlLk6GJQsqaUBKTNV-1" source="DFltRbdISgKAobZ0qITD-7" target="DFltRbdISgKAobZ0qITD-9">
          <mxGeometry relative="1" as="geometry">
            <Array as="points">
              <mxPoint x="548" y="985" />
            </Array>
          </mxGeometry>
        </mxCell>
        <mxCell id="DFltRbdISgKAobZ0qITD-21" value="change" style="curved=1;startArrow=none;endArrow=block;exitX=0.73;exitY=1;entryX=0.5;entryY=0;rounded=0;" edge="1" parent="WIyWlLk6GJQsqaUBKTNV-1" source="DFltRbdISgKAobZ0qITD-7" target="DFltRbdISgKAobZ0qITD-10">
          <mxGeometry relative="1" as="geometry">
            <Array as="points">
              <mxPoint x="870" y="985" />
            </Array>
          </mxGeometry>
        </mxCell>
        <mxCell id="DFltRbdISgKAobZ0qITD-22" value="" style="curved=1;startArrow=none;endArrow=block;exitX=0.5;exitY=1;entryX=0.01;entryY=0.25;rounded=0;" edge="1" parent="WIyWlLk6GJQsqaUBKTNV-1" source="DFltRbdISgKAobZ0qITD-8" target="DFltRbdISgKAobZ0qITD-5">
          <mxGeometry relative="1" as="geometry">
            <Array as="points">
              <mxPoint x="306" y="1079" />
            </Array>
          </mxGeometry>
        </mxCell>
        <mxCell id="DFltRbdISgKAobZ0qITD-23" value="" style="curved=1;startArrow=none;endArrow=block;exitX=0.5;exitY=1;entryX=1.01;entryY=0.25;rounded=0;" edge="1" parent="WIyWlLk6GJQsqaUBKTNV-1" source="DFltRbdISgKAobZ0qITD-9" target="DFltRbdISgKAobZ0qITD-5">
          <mxGeometry relative="1" as="geometry">
            <Array as="points">
              <mxPoint x="548" y="1079" />
            </Array>
          </mxGeometry>
        </mxCell>
        <mxCell id="DFltRbdISgKAobZ0qITD-24" value="" style="curved=1;startArrow=none;endArrow=block;exitX=0.5;exitY=1;entryX=1.01;entryY=0.43;rounded=0;" edge="1" parent="WIyWlLk6GJQsqaUBKTNV-1" source="DFltRbdISgKAobZ0qITD-10" target="DFltRbdISgKAobZ0qITD-5">
          <mxGeometry relative="1" as="geometry">
            <Array as="points">
              <mxPoint x="870" y="1079" />
            </Array>
          </mxGeometry>
        </mxCell>
      </root>
    </mxGraphModel>
  </diagram>
</mxfile>
